<?xml version="1.0" standalone="no"?><svg xmlns="http://www.w3.org/2000/svg" viewBox="0 0 1440 320"><path fill="#00cba9" fill-opacity="1" d="M0,224L13.3,202.7C26.7,181,53,139,80,149.3C106.7,160,133,224,160,224C186.7,224,213,160,240,144C266.7,128,293,160,320,176C346.7,192,373,192,400,208C426.7,224,453,256,480,240C506.7,224,533,160,560,128C586.7,96,613,96,640,90.7C666.7,85,693,75,720,69.3C746.7,64,773,64,800,85.3C826.7,107,853,149,880,149.3C906.7,149,933,107,960,112C986.7,117,1013,171,1040,208C1066.7,245,1093,267,1120,277.3C1146.7,288,1173,288,1200,288C1226.7,288,1253,288,1280,272C1306.7,256,1333,224,1360,176C1386.7,128,1413,64,1427,32L1440,0L1440,320L1426.7,320C1413.3,320,1387,320,1360,320C1333.3,320,1307,320,1280,320C1253.3,320,1227,320,1200,320C1173.3,320,1147,320,1120,320C1093.3,320,1067,320,1040,320C1013.3,320,987,320,960,320C933.3,320,907,320,880,320C853.3,320,827,320,800,320C773.3,320,747,320,720,320C693.3,320,667,320,640,320C613.3,320,587,320,560,320C533.3,320,507,320,480,320C453.3,320,427,320,400,320C373.3,320,347,320,320,320C293.3,320,267,320,240,320C213.3,320,187,320,160,320C133.3,320,107,320,80,320C53.3,320,27,320,13,320L0,320Z"></path></svg>